<svg width="1920" height="1080" viewBox="0 0 1920 1080" fill="none" xmlns="http://www.w3.org/2000/svg">
<rect width="1920" height="1080" fill="white"/>
<path d="M886.344 634L818.376 432.4H789.288L721.32 634H757.32L765.096 608.368H842.568L850.344 634H886.344ZM803.688 478.768L833.64 578.704H773.736L803.688 478.768Z" fill="black"/>
<path d="M936.324 634V574.672C936.324 544.144 949.86 527.44 972.036 527.44C976.932 527.44 979.524 527.44 984.42 528.016V499.216C980.964 498.352 976.932 498.064 972.036 498.064C957.348 498.064 941.22 506.704 936.324 525.712V499.792H904.932V634H936.324Z" fill="black"/>
<path d="M1057.16 637.456C1094.6 637.456 1117.93 617.584 1120.81 587.632H1089.41C1085.96 601.744 1076.17 609.52 1057.16 609.52C1034.98 609.52 1021.73 594.256 1021.73 566.896C1021.73 539.536 1034.98 524.272 1057.16 524.272C1076.17 524.272 1085.96 532.336 1089.41 547.6H1120.81C1117.93 516.784 1094.6 496.336 1057.16 496.336C1015.4 496.336 990.342 525.136 990.342 566.896C990.342 608.656 1015.4 637.456 1057.16 637.456Z" fill="black"/>
<path d="M1220.58 496.336C1200.71 496.336 1185.16 504.112 1176.8 518.512V432.4H1145.41V634H1176.8V560.272C1176.8 536.656 1188.32 523.12 1208.77 523.12C1230.66 523.12 1238.15 535.504 1238.15 564.016V634H1269.54V549.616C1269.54 514.48 1252.84 496.336 1220.58 496.336Z" fill="black"/>
<path d="M1424.31 559.984C1424.31 522.256 1398.39 496.336 1360.09 496.336C1319.19 496.336 1292.7 523.984 1292.7 566.896C1292.7 610.384 1318.9 637.456 1361.24 637.456C1393.5 637.456 1418.84 619.888 1422.87 594.832H1391.19C1386.01 605.2 1376.79 610.096 1361.24 610.096C1338.49 610.096 1324.66 598.576 1323.8 577.264H1423.45C1424.02 569.776 1424.31 565.456 1424.31 559.984ZM1323.8 553.36C1324.09 534.352 1337.34 521.104 1359.51 521.104C1381.11 521.104 1393.21 532.624 1393.5 553.36H1323.8Z" fill="black"/>
<path d="M1480.28 634V574.672C1480.28 544.144 1493.82 527.44 1516 527.44C1520.89 527.44 1523.48 527.44 1528.38 528.016V499.216C1524.92 498.352 1520.89 498.064 1516 498.064C1501.31 498.064 1485.18 506.704 1480.28 525.712V499.792H1448.89V634H1480.28Z" fill="black"/>
<path d="M540.588 512.443C513.349 489.952 478.421 476.44 440.337 476.44C440.224 476.44 440.112 476.44 440 476.44L440 446.14C440.112 446.14 440.224 446.14 440.337 446.14C486.79 446.14 529.305 463 562.096 490.935L597.633 455.398H567.933V432H642V506.067H618.433V477.449L583.512 512.37C611.381 545.144 628.197 587.608 628.197 634H597.897C597.897 595.977 584.428 561.101 562.002 533.88L461.882 634H440V515.83H467.316V585.716L540.588 512.443Z" fill="black"/>
</svg>
