<svg width="1054" height="209" viewBox="0 0 1054 209" fill="none" xmlns="http://www.w3.org/2000/svg">
<path d="M350.032 205.456C366.448 205.456 384.88 197.392 393.232 183.856V202H424.336V67.792H393.232V85.936C384.88 72.4 368.752 64.336 350.896 64.336C309.136 64.336 284.08 95.44 284.08 134.896C284.08 174.352 306.832 205.456 350.032 205.456ZM354.64 177.52C330.16 177.52 315.472 159.376 315.472 134.896C315.472 110.416 330.16 92.272 354.64 92.272C381.424 92.272 394.384 111.856 394.384 134.896C394.384 157.936 381.424 177.52 354.64 177.52Z" fill="#5200FF"/>
<path d="M484.47 202V142.672C484.47 112.144 498.006 95.44 520.182 95.44C525.078 95.44 527.67 95.44 532.566 96.016V67.216C529.11 66.352 525.078 66.064 520.182 66.064C505.494 66.064 489.366 74.704 484.47 93.712V67.792H453.078V202H484.47Z" fill="#5200FF"/>
<path d="M599.544 205.456C636.984 205.456 660.312 185.584 663.192 155.632H631.8C628.344 169.744 618.552 177.52 599.544 177.52C577.368 177.52 564.12 162.256 564.12 134.896C564.12 107.536 577.368 92.272 599.544 92.272C618.552 92.272 628.344 100.336 631.8 115.6H663.192C660.312 84.784 636.984 64.336 599.544 64.336C557.784 64.336 532.728 93.136 532.728 134.896C532.728 176.656 557.784 205.456 599.544 205.456Z" fill="#5200FF"/>
<path d="M757.206 64.336C737.334 64.336 721.782 72.112 713.43 86.512V0.400024H682.038V202H713.43V128.272C713.43 104.656 724.95 91.12 745.398 91.12C767.286 91.12 774.774 103.504 774.774 132.016V202H806.166V117.616C806.166 82.48 789.462 64.336 757.206 64.336Z" fill="#5200FF"/>
<path d="M955.179 127.984C955.179 90.256 929.259 64.336 890.955 64.336C850.059 64.336 823.563 91.984 823.563 134.896C823.563 178.384 849.771 205.456 892.107 205.456C924.363 205.456 949.707 187.888 953.739 162.832H922.059C916.875 173.2 907.659 178.096 892.107 178.096C869.355 178.096 855.531 166.576 854.667 145.264H954.315C954.891 137.776 955.179 133.456 955.179 127.984ZM854.667 121.36C854.955 102.352 868.203 89.104 890.379 89.104C911.979 89.104 924.075 100.624 924.363 121.36H854.667Z" fill="#5200FF"/>
<path d="M1005.39 202V142.672C1005.39 112.144 1018.93 95.44 1041.1 95.44C1046 95.44 1048.59 95.44 1053.49 96.016V67.216C1050.03 66.352 1046 66.064 1041.1 66.064C1026.41 66.064 1010.29 74.704 1005.39 93.712V67.792H973.998V202H1005.39Z" fill="#5200FF"/>
<path d="M100.588 87.4429C73.3485 64.9517 38.4205 51.44 0.336686 51.44C0.22443 51.44 0.112201 51.4401 0 51.4403L0 21.1403C0.112206 21.1401 0.224434 21.14 0.336686 21.14C46.7896 21.14 89.3046 38.0004 122.096 65.9354L157.633 30.3983H127.933V7H202V81.0667H178.433V52.4487L143.512 87.3704C171.381 120.144 188.197 162.608 188.197 209H157.897C157.897 170.977 144.428 136.101 122.002 108.88L21.882 209H0V90.83H27.3155V160.716L100.588 87.4429Z" fill="#5200FF"/>
</svg>
